<svg xmlns="http://www.w3.org/2000/svg" viewBox="0 0 128 128">
  <rect width="128" height="128" fill="none"/>
  <rect x="24" y="24" width="80" height="80" rx="14" fill="none" stroke="#1a0f04" stroke-width="8"/>
  <g stroke="#1a0f04" stroke-linecap="round" stroke-width="7">
    <path d="M38 12v12M64 12v12M90 12v12M38 104v12M64 104v12M90 104v12M12 38h12M12 64h12M12 90h12M104 38h12M104 64h12M104 90h12"/>
  </g>
  <g fill="#1a0f04">
    <path d="M45 83h-9l15-40h10l15 40h-9l-3-9H48zm6-17h10l-5-15z"/>
    <rect x="82" y="43" width="9" height="40" rx="3"/>
  </g>
  <g fill="none" stroke="#1a0f04" stroke-linecap="round" stroke-width="6">
    <path d="M39 96h50"/>
    <circle cx="54" cy="96" r="7" fill="#fff"/>
  </g>
</svg>
