<svg xmlns="http://www.w3.org/2000/svg" viewBox="0 0 128 128">
  <rect width="128" height="128" fill="none"/>
  <g fill="#1a0f04">
    <rect x="14" y="14" width="30" height="30" rx="5"/>
    <rect x="22" y="22" width="14" height="14" rx="2" fill="#fff"/>
    <rect x="84" y="14" width="30" height="30" rx="5"/>
    <rect x="92" y="22" width="14" height="14" rx="2" fill="#fff"/>
    <rect x="14" y="84" width="30" height="30" rx="5"/>
    <rect x="22" y="92" width="14" height="14" rx="2" fill="#fff"/>
    <rect x="56" y="18" width="12" height="12" rx="2"/>
    <rect x="56" y="42" width="12" height="12" rx="2"/>
    <rect x="74" y="56" width="12" height="12" rx="2"/>
    <rect x="98" y="56" width="16" height="12" rx="2"/>
    <rect x="56" y="86" width="12" height="12" rx="2"/>
    <rect x="80" y="98" width="12" height="16" rx="2"/>
    <rect x="102" y="84" width="12" height="30" rx="2"/>
  </g>
  <g fill="none" stroke="#1a0f04" stroke-linecap="round" stroke-linejoin="round" stroke-width="9">
    <path d="M66 112V78"/>
    <path d="M50 92l16-16 16 16"/>
  </g>
</svg>
